<?xml version="1.0" encoding="utf-8"?>
<!-- Generator: Adobe Illustrator 17.1.0, SVG Export Plug-In . SVG Version: 6.00 Build 0)  -->
<!DOCTYPE svg PUBLIC "-//W3C//DTD SVG 1.1//EN" "http://www.w3.org/Graphics/SVG/1.1/DTD/svg11.dtd">
<svg version="1.1" xmlns="http://www.w3.org/2000/svg" xmlns:xlink="http://www.w3.org/1999/xlink" x="0px" y="0px"
	 viewBox="0 0 1358 224" enable-background="new 0 0 1358 224" xml:space="preserve">
<g id="NEXT_1_" enable-background="new    ">
	<g id="NEXT">
		<g>
			<path fill-rule="evenodd" clip-rule="evenodd" fill="#FFFFFF" d="M101.429,146.901c-4.27-7.049-9.503-15.095-15.705-24.141
				c-6.202-9.044-12.804-18.256-19.806-27.633c-7.002-9.377-14.073-18.486-21.207-27.334c-7.137-8.844-13.839-16.591-20.106-23.244
				H9.2v138.264h19.006V74.876c3.732,4.258,7.802,9.178,12.204,14.764c4.401,5.586,8.934,11.541,13.604,17.857
				c4.667,6.319,9.369,12.869,14.104,19.652c4.733,6.784,9.303,13.467,13.704,20.051c4.401,6.584,8.503,12.937,12.304,19.054
				c3.801,6.12,7.168,11.641,10.103,16.56h16.205V44.55h-19.006V146.901z M174.251,118.371h58.018V102.21h-58.018v-41.1h65.22V44.55
				h-84.626v138.264h89.628v-16.56h-70.222V118.371z M327.298,108.993l43.614-64.443h-22.207l-33.81,51.475L280.683,44.55h-22.407
				l44.414,65.242c-8.937,12.769-17.374,25.208-25.308,37.309c-7.937,12.105-14.905,24.01-20.907,35.713h21.407
				c2.001-3.99,4.433-8.411,7.302-13.268c2.867-4.854,5.933-9.907,9.203-15.163c3.267-5.253,6.702-10.506,10.303-15.762
				c3.601-5.253,7.068-10.206,10.403-14.864c3.332,4.657,6.802,9.611,10.403,14.864c3.601,5.256,7.068,10.509,10.403,15.762
				c3.332,5.256,6.402,10.309,9.203,15.163c2.801,4.857,5.202,9.278,7.202,13.268h21.807c-6.136-11.837-13.204-23.873-21.207-36.112
				C344.903,134.466,336.366,121.897,327.298,108.993z M383.912,44.55v16.759h43.614v121.505h19.406V61.309h43.613V44.55H383.912z"
				/>
		</g>
	</g>
</g>
<g id="__INPACT_1_" enable-background="new    ">
	<g id="__INPACT">
		<g>
			<path fill-rule="evenodd" clip-rule="evenodd" fill="#FFFFFF" d="M834.043,149.894c-2.269-7.313-5.136-15.562-8.603-24.74
				c-3.47-9.178-7.237-18.555-11.303-28.132c-4.07-9.577-8.337-18.92-12.804-28.032c-4.47-9.109-8.837-17.258-13.104-24.441h-16.605
				l-33.21,138.264h19.006l26.608-110.532c4.001,7.052,8.068,15.332,12.204,24.84c4.133,9.511,8.168,19.322,12.104,29.429
				c3.932,10.11,7.568,20.086,10.903,29.927c3.332,9.845,6.202,18.624,8.603,26.336h17.005l33.01-138.264H858.85L834.043,149.894z
				 M719.01,44.55l-10.198,42.457l17.147,9.405l12.457-51.863H719.01z M685.8,182.814h19.406l11.917-49.615l-21.594,9.111
				L685.8,182.814z M1196.953,41.358c-12.138,0-23.142,2.494-33.01,7.482c-9.872,4.988-18.306,11.672-25.308,20.051
				c-7.002,8.38-12.404,18.025-16.205,28.93c-3.801,10.908-5.702,22.346-5.702,34.317c0,8.249,1.1,15.662,3.301,22.246
				c2.201,6.584,5.502,12.205,9.903,16.859c4.401,4.657,9.903,8.249,16.505,10.774c6.602,2.525,14.236,3.791,22.907,3.791
				c4.801,0,9.334-0.299,13.604-0.898c4.267-0.599,8.134-1.365,11.604-2.294c1.812-0.486,3.499-0.991,5.075-1.514l4.781-19.772
				c-0.902,0.42-1.847,0.862-2.853,1.334c-2.27,1.066-4.87,2.029-7.802,2.893c-2.935,0.867-6.302,1.63-10.103,2.294
				c-3.801,0.667-8.103,0.998-12.904,0.998c-22.541,0-33.811-12.969-33.811-38.906c0-8.38,1.332-16.859,4.001-25.438
				c2.667-8.579,6.533-16.292,11.604-23.144c5.067-6.849,11.269-12.435,18.606-16.759c7.333-4.321,15.605-6.484,24.808-6.484
				c7.202,0,13.435,0.898,18.706,2.693c5.267,1.796,9.434,3.691,12.504,5.686l0.339-0.676l4.183-17.298
				c-2.536-1.268-5.801-2.592-9.823-3.973C1215.659,42.424,1207.357,41.358,1196.953,41.358z M1250.966,44.55l-3.801,16.161h41.813
				l-29.409,122.103h19.406l29.409-122.103h41.813l3.801-16.161H1250.966z M990.191,102.509c3.401-6.584,5.102-14.396,5.102-23.443
				c0-11.703-4.101-20.616-12.304-26.735c-8.203-6.116-20.375-9.178-36.511-9.178c-5.602,0-11.538,0.2-17.806,0.599
				c-6.271,0.399-12.204,1.266-17.805,2.594l-32.81,136.469h19.406l12.404-51.475h13.804c10.803,0,20.606-1.029,29.409-3.093
				c8.803-2.061,16.336-5.219,22.607-9.477C981.954,114.514,986.789,109.093,990.191,102.509z M970.785,97.92
				c-3.001,4.458-6.837,7.949-11.504,10.475c-4.67,2.528-9.937,4.29-15.805,5.287c-5.871,0.998-11.604,1.496-17.205,1.496h-12.604
				l13.204-54.867c2.001-0.53,7.734-0.798,17.205-0.798c9.603,0,17.205,1.63,22.807,4.888c5.602,3.261,8.403,8.679,8.403,16.26
				C975.286,87.714,973.785,93.466,970.785,97.92z M1087.522,106.799c-1.6-11.173-3.235-21.847-4.901-32.022
				c-1.669-10.175-3.501-20.251-5.502-30.227h-19.006c-13.873,20.086-27.908,41.434-42.113,64.044
				c-14.204,22.614-28.778,47.354-43.714,74.22h21.207l19.606-35.514h60.419c0.666,5.586,1.266,11.407,1.801,17.458
				c0.531,6.054,1.132,12.071,1.801,18.056h19.606c-1.601-14.496-3.135-27.998-4.601-40.502
				C1090.655,129.812,1089.123,117.972,1087.522,106.799z M1022.102,131.738c8.803-15.163,16.671-28.097,23.607-38.806
				c6.933-10.705,12.735-19.453,17.405-26.236c1.866,11.307,3.501,22.28,4.902,32.92c1.4,10.643,2.632,21.348,3.701,32.122H1022.102
				z"/>
		</g>
	</g>
</g>
<g id="fleche_1_" enable-background="new    ">
	<g id="fleche">
		<g>
			<path fill-rule="evenodd" clip-rule="evenodd" fill="#E88228" d="M720.958,104.658c-5.721-4.237-173.761-86.253-173.761-86.253
				s-15.559-8.292-18.002,5.844c-2.555,10.802-35.503,162.087-37.451,171.409c-1.748,8.361,5.8,15.397,14.039,12.77
				c12.543-4.002,200.817-81.786,209.873-84.956C726.638,119.634,728.376,110.153,720.958,104.658z M520.46,176.08l28.361-129.685
				l132.689,64.842L520.46,176.08z"/>
		</g>
	</g>
</g>
</svg>
